# xmcd
#
# Track frame offsets: 
#        150
#        25275
#        49800
#        68025
#        96600
#        119550
#        137475
#        165075
#        187125
#        214575
#
# Disc length: 3331 seconds
#
# Revision: 0
# Processed by: cddbd v1.5.2PL0 Copyright (c) Steve Scherf et al.
# Submitted via: ExactAudioCopy v1.0b3
#
DISCID=8e0d010a
DTITLE=John John Festival - 歌とチューン
DYEAR=2012
DGENRE=Celtic
TTITLE0=ふたりのことば
TTITLE1=Hey John Joe
TTITLE2=Second Star
TTITLE3=Christmas Eve
TTITLE4=思い出の歌
TTITLE5=ワンツーポルカ
TTITLE6=I Was Wrong In Soul
TTITLE7=鳥の一生
TTITLE8=藤色の夜明け
TTITLE9=古い映画の話
EXTD=
EXTT0=
EXTT1=
EXTT2=
EXTT3=
EXTT4=
EXTT5=
EXTT6=
EXTT7=
EXTT8=
EXTT9=
PLAYORDER=
